<mxfile host="app.diagrams.net" modified="2023-08-25T00:57:03.614Z" agent="Mozilla/5.0 (Windows NT 10.0; Win64; x64) AppleWebKit/537.36 (KHTML, like Gecko) Chrome/116.0.0.0 Safari/537.36 Edg/116.0.1938.54" etag="a5M4xA43TQBTwk6sl2A2" version="21.5.0" type="device">
  <diagram name="第 1 页" id="CbvJ-aEySj94y71w2l6z">
    <mxGraphModel dx="1226" dy="639" grid="1" gridSize="10" guides="1" tooltips="1" connect="1" arrows="1" fold="1" page="1" pageScale="1" pageWidth="1169" pageHeight="827" math="0" shadow="0">
      <root>
        <mxCell id="0" />
        <mxCell id="1" parent="0" />
        <mxCell id="MnFxEjcl5ootm6c36eBw-2" value="" style="shape=table;startSize=0;container=1;collapsible=0;childLayout=tableLayout;fontSize=16;" vertex="1" parent="1">
          <mxGeometry x="235" y="120" width="350" height="40" as="geometry" />
        </mxCell>
        <mxCell id="MnFxEjcl5ootm6c36eBw-3" value="" style="shape=tableRow;horizontal=0;startSize=0;swimlaneHead=0;swimlaneBody=0;strokeColor=inherit;top=0;left=0;bottom=0;right=0;collapsible=0;dropTarget=0;fillColor=none;points=[[0,0.5],[1,0.5]];portConstraint=eastwest;fontSize=16;" vertex="1" parent="MnFxEjcl5ootm6c36eBw-2">
          <mxGeometry width="350" height="40" as="geometry" />
        </mxCell>
        <mxCell id="MnFxEjcl5ootm6c36eBw-4" value="" style="shape=partialRectangle;html=1;whiteSpace=wrap;connectable=0;strokeColor=inherit;overflow=hidden;fillColor=none;top=0;left=0;bottom=0;right=0;pointerEvents=1;fontSize=16;" vertex="1" parent="MnFxEjcl5ootm6c36eBw-3">
          <mxGeometry width="117" height="40" as="geometry">
            <mxRectangle width="117" height="40" as="alternateBounds" />
          </mxGeometry>
        </mxCell>
        <mxCell id="MnFxEjcl5ootm6c36eBw-5" value="" style="shape=partialRectangle;html=1;whiteSpace=wrap;connectable=0;strokeColor=inherit;overflow=hidden;fillColor=none;top=0;left=0;bottom=0;right=0;pointerEvents=1;fontSize=16;" vertex="1" parent="MnFxEjcl5ootm6c36eBw-3">
          <mxGeometry x="117" width="113" height="40" as="geometry">
            <mxRectangle width="113" height="40" as="alternateBounds" />
          </mxGeometry>
        </mxCell>
        <mxCell id="MnFxEjcl5ootm6c36eBw-6" value="" style="shape=partialRectangle;html=1;whiteSpace=wrap;connectable=0;strokeColor=inherit;overflow=hidden;fillColor=none;top=0;left=0;bottom=0;right=0;pointerEvents=1;fontSize=16;" vertex="1" parent="MnFxEjcl5ootm6c36eBw-3">
          <mxGeometry x="230" width="120" height="40" as="geometry">
            <mxRectangle width="120" height="40" as="alternateBounds" />
          </mxGeometry>
        </mxCell>
        <mxCell id="MnFxEjcl5ootm6c36eBw-15" value="" style="shape=tableRow;horizontal=0;startSize=0;swimlaneHead=0;swimlaneBody=0;strokeColor=inherit;top=0;left=0;bottom=0;right=0;collapsible=0;dropTarget=0;fillColor=none;points=[[0,0.5],[1,0.5]];portConstraint=eastwest;fontSize=16;" vertex="1" parent="1">
          <mxGeometry x="370" y="260" width="350" height="40" as="geometry" />
        </mxCell>
        <mxCell id="MnFxEjcl5ootm6c36eBw-16" value="" style="shape=partialRectangle;html=1;whiteSpace=wrap;connectable=0;strokeColor=inherit;overflow=hidden;fillColor=none;top=0;left=0;bottom=0;right=0;pointerEvents=1;fontSize=16;" vertex="1" parent="MnFxEjcl5ootm6c36eBw-15">
          <mxGeometry width="117" height="40" as="geometry">
            <mxRectangle width="117" height="40" as="alternateBounds" />
          </mxGeometry>
        </mxCell>
        <mxCell id="MnFxEjcl5ootm6c36eBw-17" value="" style="shape=partialRectangle;html=1;whiteSpace=wrap;connectable=0;strokeColor=inherit;overflow=hidden;fillColor=none;top=0;left=0;bottom=0;right=0;pointerEvents=1;fontSize=16;" vertex="1" parent="MnFxEjcl5ootm6c36eBw-15">
          <mxGeometry x="117" width="116" height="40" as="geometry">
            <mxRectangle width="116" height="40" as="alternateBounds" />
          </mxGeometry>
        </mxCell>
        <mxCell id="MnFxEjcl5ootm6c36eBw-18" value="" style="shape=partialRectangle;html=1;whiteSpace=wrap;connectable=0;strokeColor=inherit;overflow=hidden;fillColor=none;top=0;left=0;bottom=0;right=0;pointerEvents=1;fontSize=16;" vertex="1" parent="MnFxEjcl5ootm6c36eBw-15">
          <mxGeometry x="233" width="117" height="40" as="geometry">
            <mxRectangle width="117" height="40" as="alternateBounds" />
          </mxGeometry>
        </mxCell>
        <mxCell id="MnFxEjcl5ootm6c36eBw-19" value="" style="rounded=0;whiteSpace=wrap;html=1;" vertex="1" parent="1">
          <mxGeometry x="585" y="120" width="120" height="40" as="geometry" />
        </mxCell>
        <mxCell id="MnFxEjcl5ootm6c36eBw-21" value="" style="rounded=0;whiteSpace=wrap;html=1;" vertex="1" parent="1">
          <mxGeometry x="705" y="120" width="120" height="40" as="geometry" />
        </mxCell>
        <mxCell id="MnFxEjcl5ootm6c36eBw-22" value="" style="rounded=0;whiteSpace=wrap;html=1;" vertex="1" parent="1">
          <mxGeometry x="825" y="120" width="120" height="40" as="geometry" />
        </mxCell>
        <mxCell id="MnFxEjcl5ootm6c36eBw-23" value="" style="rounded=0;whiteSpace=wrap;html=1;" vertex="1" parent="1">
          <mxGeometry x="945" y="120" width="120" height="40" as="geometry" />
        </mxCell>
        <mxCell id="MnFxEjcl5ootm6c36eBw-24" value="&lt;font style=&quot;font-size: 16px;&quot;&gt;描述符[7]&lt;/font&gt;" style="text;html=1;strokeColor=none;fillColor=none;align=center;verticalAlign=middle;whiteSpace=wrap;rounded=0;" vertex="1" parent="1">
          <mxGeometry x="545" y="80" width="110" height="30" as="geometry" />
        </mxCell>
        <mxCell id="MnFxEjcl5ootm6c36eBw-25" value="" style="rounded=0;whiteSpace=wrap;html=1;" vertex="1" parent="1">
          <mxGeometry x="235" y="300" width="500" height="180" as="geometry" />
        </mxCell>
        <mxCell id="MnFxEjcl5ootm6c36eBw-26" value="" style="endArrow=none;html=1;rounded=0;entryX=0.168;entryY=1.07;entryDx=0;entryDy=0;entryPerimeter=0;" edge="1" parent="1" target="MnFxEjcl5ootm6c36eBw-3">
          <mxGeometry width="50" height="50" relative="1" as="geometry">
            <mxPoint x="294" y="300" as="sourcePoint" />
            <mxPoint x="330" y="200" as="targetPoint" />
          </mxGeometry>
        </mxCell>
        <mxCell id="MnFxEjcl5ootm6c36eBw-27" value="&lt;font style=&quot;font-size: 16px;&quot;&gt;一页内存（arena）&lt;/font&gt;" style="text;html=1;strokeColor=none;fillColor=none;align=center;verticalAlign=middle;whiteSpace=wrap;rounded=0;" vertex="1" parent="1">
          <mxGeometry x="420" y="310" width="110" height="30" as="geometry" />
        </mxCell>
        <mxCell id="MnFxEjcl5ootm6c36eBw-28" value="" style="rounded=0;whiteSpace=wrap;html=1;" vertex="1" parent="1">
          <mxGeometry x="270" y="360" width="120" height="60" as="geometry" />
        </mxCell>
        <mxCell id="MnFxEjcl5ootm6c36eBw-29" value="" style="rounded=0;whiteSpace=wrap;html=1;" vertex="1" parent="1">
          <mxGeometry x="425" y="360" width="120" height="60" as="geometry" />
        </mxCell>
        <mxCell id="MnFxEjcl5ootm6c36eBw-30" value="" style="rounded=0;whiteSpace=wrap;html=1;" vertex="1" parent="1">
          <mxGeometry x="585" y="360" width="120" height="60" as="geometry" />
        </mxCell>
        <mxCell id="MnFxEjcl5ootm6c36eBw-31" value="" style="endArrow=none;html=1;rounded=0;entryX=1;entryY=0.5;entryDx=0;entryDy=0;exitX=0;exitY=0.5;exitDx=0;exitDy=0;" edge="1" parent="1" source="MnFxEjcl5ootm6c36eBw-29" target="MnFxEjcl5ootm6c36eBw-28">
          <mxGeometry width="50" height="50" relative="1" as="geometry">
            <mxPoint x="545" y="327" as="sourcePoint" />
            <mxPoint x="545" y="190" as="targetPoint" />
          </mxGeometry>
        </mxCell>
        <mxCell id="MnFxEjcl5ootm6c36eBw-32" value="" style="endArrow=none;html=1;rounded=0;entryX=1;entryY=0.5;entryDx=0;entryDy=0;exitX=0;exitY=0.5;exitDx=0;exitDy=0;" edge="1" parent="1" source="MnFxEjcl5ootm6c36eBw-30">
          <mxGeometry width="50" height="50" relative="1" as="geometry">
            <mxPoint x="580" y="389.8" as="sourcePoint" />
            <mxPoint x="545" y="389.8" as="targetPoint" />
          </mxGeometry>
        </mxCell>
        <mxCell id="MnFxEjcl5ootm6c36eBw-35" value="" style="rounded=0;whiteSpace=wrap;html=1;" vertex="1" parent="1">
          <mxGeometry x="820" y="300" width="450" height="190" as="geometry" />
        </mxCell>
        <mxCell id="MnFxEjcl5ootm6c36eBw-36" value="" style="rounded=0;whiteSpace=wrap;html=1;" vertex="1" parent="1">
          <mxGeometry x="840" y="360" width="120" height="60" as="geometry" />
        </mxCell>
        <mxCell id="MnFxEjcl5ootm6c36eBw-40" value="" style="endArrow=none;html=1;rounded=0;entryX=1;entryY=0.5;entryDx=0;entryDy=0;exitX=0;exitY=0.5;exitDx=0;exitDy=0;" edge="1" parent="1" source="MnFxEjcl5ootm6c36eBw-36" target="MnFxEjcl5ootm6c36eBw-30">
          <mxGeometry width="50" height="50" relative="1" as="geometry">
            <mxPoint x="818.82" y="348.5" as="sourcePoint" />
            <mxPoint x="818.82" y="211.5" as="targetPoint" />
          </mxGeometry>
        </mxCell>
        <mxCell id="MnFxEjcl5ootm6c36eBw-41" value="&lt;font style=&quot;font-size: 16px;&quot;&gt;一页内存（arena）&lt;/font&gt;" style="text;html=1;strokeColor=none;fillColor=none;align=center;verticalAlign=middle;whiteSpace=wrap;rounded=0;" vertex="1" parent="1">
          <mxGeometry x="990" y="320" width="110" height="30" as="geometry" />
        </mxCell>
      </root>
    </mxGraphModel>
  </diagram>
</mxfile>
